{"title":"Ronal The Barbarian 2011 English Dubbed 720p BluRay x264-Insane0","uid":7847936,"size":1628575871,"categoryP":"video","categoryS":"hd___movies","magnet":"?xt=urn:btih:d4ba7078ecb864b5ecab8dae014216fc1b9d1bb2&amp;dn=Ronal+The+Barbarian+2011+English+Dubbed+720p+BluRay+x264-Insane0&amp;tr=udp%3A%2F%2Ftracker.openbittorrent.com%3A80&amp;tr=udp%3A%2F%2Fopen.demonii.com%3A1337&amp;tr=udp%3A%2F%2Ftracker.coppersurfer.tk%3A6969&amp;tr=udp%3A%2F%2Fexodus.desync.com%3A6969","seeders":13,"leechers":2,"uploader":"098765432","files":-1,"time":1353520412,"description":"[b]Ronal The Barbarian 2011 English Dubbed 720p BluRay x264-Insane098[/b]\n\n[b]Plot:[/b]\nFantasy comedy about young Ronal who lives in a barbarian village. Ronal is weak, skinny and doesn't have the usual barbarian traits like everyone else and therefore is considered a laughing stock. But one day his village gets attacked, his tribe kidnapped by the evil Volcazar. Ronal decides to save his tribe and defeat Volcazar and on his way he must survive many dangerous situations...\n\n[IMG]http://i1186.photobucket.com/albums/z372/Insane098/RonalTheBarbarian2011EnglishDubbed720pBluRayx264-Insane098mp4_thumbs_20121121_124607.jpg[/IMG]\n\n[b]IMBD:[/b] [url]http://www.imdb.com/title/tt1629374/[/url]\n\n\n[b]Media Info:[/b]\n[code]Complete name                            : Ronal The Barbarian 2011 English Dubbed 720p BluRay x264-Insane098.mp4\nFormat                                   : MPEG-4\nFormat profile                           : Base Media\nCodec ID                                 : isom\nFile size                                : 1.51 GiB\nDuration                                 : 1h 25mn\nOverall bit rate                         : 2 518 Kbps\nWriting application                      : Lavf54.25.105\n\nVideo\nID                                       : 1\nFormat                                   : AVC\nFormat/Info                              : Advanced Video Codec\nFormat profile                           : &lt;a class=&quot;__cf_email__&quot; href=&quot;/cdn-cgi/l/email-protection&quot; data-cfemail=&quot;43012230262f2a2d26030f706d73&quot;&gt;[email&amp;#160;protected]&lt;/a&gt;&lt;script cf-hash='f9e31' type=&quot;text/javascript&quot;&gt;\n/* &lt;![CDATA[ */!function(){try{var t=&quot;currentScript&quot;in document?document.currentScript:function(){for(var t=document.getElementsByTagName(&quot;script&quot;),e=t.length;e--;)if(t[e].getAttribute(&quot;cf-hash&quot;))return t[e]}();if(t&amp;&amp;t.previousSibling){var e,r,n,i,c=t.previousSibling,a=c.getAttribute(&quot;data-cfemail&quot;);if(a){for(e=&quot;&quot;,r=parseInt(a.substr(0,2),16),n=2;a.length-n;n+=2)i=parseInt(a.substr(n,2),16)^r,e+=String.fromCharCode(i);e=document.createTextNode(e),c.parentNode.replaceChild(e,c)}}}catch(u){}}();/* ]]&gt; */&lt;/script&gt;\nFormat settings, CABAC                   : No\nFormat settings, ReFrames                : 2 frames\nCodec ID                                 : avc1\nCodec ID/Info                            : Advanced Video Coding\nDuration                                 : 1h 25mn\nBit rate                                 : 2 000 Kbps\nWidth                                    : 1 280 pixels\nHeight                                   : 720 pixels\nDisplay aspect ratio                     : 16:9\nFrame rate mode                          : Constant\nFrame rate                               : 25.000 fps\nColor space                              : YUV\nChroma subsampling                       : 4:2:0\nBit depth                                : 8 bits\nScan type                                : Progressive\nBits/(Pixel*Frame)                       : 0.087\nStream size                              : 1.24 GiB (82%)\nWriting library                          : x264 core 125 r2208 d9d2288\n\nAudio\nID                                       : 2\nFormat                                   : AC-3\nFormat/Info                              : Audio Coding 3\nMode extension                           : CM (complete main)\nFormat settings, Endianness              : Big\nCodec ID                                 : ac-3\nDuration                                 : 1h 25mn\nBit rate mode                            : Constant\nBit rate                                 : 448 Kbps\nChannel(s)                               : 6 channels\nChannel positions                        : Front: L C R, Side: L R, LFE\nSampling rate                            : 48.0 KHz\nBit depth                                : 16 bits\nCompression mode                         : Lossy\nStream size                              : 274 MiB (18%)[/code]","torrent":{"xt":"urn:btih:d4ba7078ecb864b5ecab8dae014216fc1b9d1bb2","amp;dn":"Ronal+The+Barbarian+2011+English+Dubbed+720p+BluRay+x264-Insane0","amp;tr":["udp%3A%2F%2Ftracker.openbittorrent.com%3A80","udp%3A%2F%2Fopen.demonii.com%3A1337","udp%3A%2F%2Ftracker.coppersurfer.tk%3A6969","udp%3A%2F%2Fexodus.desync.com%3A6969"],"infoHash":"d4ba7078ecb864b5ecab8dae014216fc1b9d1bb2","infoHashBuffer":{"type":"Buffer","data":[212,186,112,120,236,184,100,181,236,171,141,174,1,66,22,252,27,157,27,178]},"announce":[],"urlList":[]}}